<?xml version="1.0" encoding="UTF-8" standalone="no"?>
<svg
   xmlns:dc="http://purl.org/dc/elements/1.1/"
   xmlns:cc="http://creativecommons.org/ns#"
   xmlns:rdf="http://www.w3.org/1999/02/22-rdf-syntax-ns#"
   xmlns:svg="http://www.w3.org/2000/svg"
   xmlns="http://www.w3.org/2000/svg"
   xmlns:sodipodi="http://sodipodi.sourceforge.net/DTD/sodipodi-0.dtd"
   xmlns:inkscape="http://www.inkscape.org/namespaces/inkscape"
   width="16"
   height="16"
   version="1.1"
   viewBox="0 0 16 16"
   id="svg45"
   sodipodi:docname="public-partial.svg"
   inkscape:version="0.92.3 (2405546, 2018-03-11)">
  <metadata
     id="metadata49">
    <rdf:RDF>
      <cc:Work
         rdf:about="">
        <dc:format>image/svg+xml</dc:format>
        <dc:type
           rdf:resource="http://purl.org/dc/dcmitype/StillImage" />
        <dc:title></dc:title>
      </cc:Work>
    </rdf:RDF>
  </metadata>
  <sodipodi:namedview
     pagecolor="#ffffff"
     bordercolor="#666666"
     borderopacity="1"
     objecttolerance="10"
     gridtolerance="10"
     guidetolerance="10"
     inkscape:pageopacity="0"
     inkscape:pageshadow="2"
     inkscape:window-width="3440"
     inkscape:window-height="2755"
     id="namedview47"
     showgrid="false"
     inkscape:zoom="85.683734"
     inkscape:cx="11.249697"
     inkscape:cy="4.5511595"
     inkscape:window-x="-13"
     inkscape:window-y="-13"
     inkscape:window-maximized="1"
     inkscape:current-layer="svg45" />
  <defs
     id="defs7">
    <radialGradient
       id="radialGradient4356"
       cx="11.827"
       cy="10.476"
       r="32.665"
       gradientTransform="matrix(0.40660813,0,0,0.21860336,4.1177834,4.2638124)"
       gradientUnits="userSpaceOnUse">
      <stop
         stop-color="#fff"
         offset="0"
         id="stop2" />
      <stop
         stop-color="#fff"
         stop-opacity="0"
         offset="1"
         id="stop4" />
    </radialGradient>
  </defs>
  <path
     style="fill:#3465a4;stroke-width:0.99999928"
     inkscape:connector-curvature="0"
     d="m 15.246209,10.4995 c 0,2.621155 -2.125042,4.746191 -4.746095,4.746191 -2.621195,0 -4.7462375,-2.124893 -4.7462375,-4.746191 0,-2.6210118 2.1248996,-4.7457627 4.7462375,-4.7457627 2.621053,0 4.746095,2.1247509 4.746095,4.7457627 z"
     id="path9" />
  <g
     style="color:#000000;fill:#73d216;stroke-width:3.94779992"
     id="g13"
     transform="matrix(0.25331935,0,0,0.25330162,4.1439872,4.4515167)">
    <path
       style="color:#000000;fill:#73d216;stroke-width:3.94779992"
       inkscape:connector-curvature="0"
       d="m 44.071,20.714 c -0.9955,7.5301 -3.6904,11.641 -5.3009,14.098 0.49907,1.4739 -1.8317,2.4581 -2.8706,3.441 -0.95096,0.97065 -2.7669,0.62697 -2.4825,-0.95689 -0.16526,-1.43 -1.1585,-2.7315 -0.78804,-4.2478 0.5631,-1.8889 -0.65613,-3.6648 -0.67738,-5.5376 -0.77192,-1.2094 -2.2833,-0.479 -3.4092,-0.38803 -1.737,0.02945 -2.6363,-1.9137 -2.9485,-3.3754 0.2885,-1.3676 0.39294,-2.8452 1.4159,-3.9153 2.863,-3.0034 5.0708,-1.8363 7.3859,-1.1751 0.85204,0.21778 3.5564,0.65558 2.7091,-0.90197 -4.6522,-2.4157 -3.3357,-1.6638 -7.8366,-0.62171 -1.3747,1.4776 -4.3871,-6.3139 -2.3607,-6.1594 2.645,-2.1008 5.8635,-1.9738 8.702,-2.7128 0.59795,-0.00245 1.4765,0.75711 0.36189,0.80462 -0.53962,1.1817 1.3536,0.51578 1.6391,0.15923 1.2443,0.65146 1.8007,2.1069 2.8508,3.0052 1.8802,2.4706 3.1524,5.41 3.6097,8.484 z"
       id="path11" />
  </g>
  <g
     style="color:#000000;fill:#73d216;stroke-width:3.94779992"
     id="g19"
     transform="matrix(0.25331935,0,0,0.25330162,4.1439872,4.4515167)">
    <path
       style="color:#000000;fill:#73d216;stroke-width:3.94779992"
       inkscape:connector-curvature="0"
       d="M 18.365,28.242 C 17.2825,26.6344 15.6898,25.1329 13.6741,24.9407 12.4913,26.246 9.9178,25.11955 10.1414,23.3501 9.25168,22.63525 6.8363,22.2112 7.8618,20.6199 c 1.0781,-1.4148 3.3399,-0.2038 4.4092,-1.6584 0.93098,-1.0739 1.4345,-2.8026 3.0425,-3.0407 1.0965,-0.49247 0.9757,-2.1269 2.3064,-2.2812 1.0833,-0.80841 0.83979,-2.8291 -0.5674,-3.1109 -1.2627,-0.43227 -1.3962,-2.2894 -2.1766,-1.6216 -1.7205,1.2809 -2.8259,1.4103 -1.0464,1.0902 1.512,-1.0029 -1.1719,-2.2795 -1.5638,-0.64175 -2.7713,2.6614 -4.991,5.9737 -5.9452,9.7272 -0.28908,1.0509 -0.49845,2.1236 -0.62899,3.2057 0.5527,1.671 -0.096268,2.9193 1.2069,3.7687 3.4012,5.6158 1.2709,9.0508 7.1844,12.139 -0.24091,1.4868 1.6965,2.9692 2.9415,1.8774 1.6164,-0.94038 1.5449,-3.1338 2.871,-4.3421 1.0597,-1.2886 1.5613,-2.9414 1.6984,-4.5751 0.0021,-1.2308 -1.0488,-2.3706 -2.2994,-2.3617 -0.3434,-0.11436 -0.68296,-0.27971 -0.92946,-0.55253"
       id="path17" />
  </g>
  <path
     style="opacity:1;fill:#d3d7cf;fill-opacity:1;stroke-width:0.99999917"
     d="M 10.5 5.7539062 C 8.234979 5.7539063 6.3461689 7.3426108 5.8730469 9.4648438 L 5.8769531 9.4648438 A 4.6091895 1.2642384 0 0 0 5.8359375 9.625 A 4.6091895 1.2642384 0 0 0 10.445312 10.888672 A 4.6091895 1.2642384 0 0 0 15.054688 9.625 A 4.6091895 1.2642384 0 0 0 15.011719 9.4648438 L 15.126953 9.4648438 C 14.653778 7.3426108 12.764775 5.7539064 10.5 5.7539062 z "
     id="ellipse25" />
  <g
     style="color:#000000;fill:#73d216;stroke-width:3.94779992"
     id="g33"
     transform="matrix(0.25331935,0,0,0.25330162,4.1439872,4.4515167)">
    <path
       style="color:#000000;fill:#73d216;stroke-width:3.94779992"
       inkscape:connector-curvature="0"
       d="M 17.492,6.8496 17.8558,6.521 18.5829,6.3564 c 0.498,-0.2422 0.998,-0.4053 1.5264,-0.5762 l -0.29,-0.4937 -0.9385,0.1348 -0.4434,0.4419 -0.731,0.106 -0.6499,0.3052 -0.3159,0.1528 -0.1929,0.2583 0.9443,0.1641"
       id="path31" />
  </g>
  <path
     style="fill:none;stroke:#4e9a06;stroke-width:0.99999928"
     inkscape:connector-curvature="0"
     d="m 15.5005,10.4995 c 0,2.761433 -2.238759,5.000036 -5.0001,5.000036 -2.7614838,0 -5.0001,-2.238603 -5.0001,-5.000036 0,-2.7612905 2.2386162,-4.99975 5.0001,-4.99975 2.761198,0 5.0001,2.2383167 5.0001,4.99975 z"
     id="path39" />
</svg>
