<svg xmlns="http://www.w3.org/2000/svg" xmlns:xlink="http://www.w3.org/1999/xlink" width="16" height="16">
 <defs>
  <linearGradient id="a">
   <stop offset="0" stop-color="#fffcde"/>
   <stop offset=".645" stop-color="#f6e76a"/>
   <stop offset="1" stop-color="#ffb738"/>
  </linearGradient>
  <linearGradient id="b">
   <stop offset="0"/>
   <stop offset="1" stop-opacity="0"/>
  </linearGradient>
  <linearGradient id="f">
   <stop offset="0" stop-opacity="0"/>
   <stop offset=".5"/>
   <stop offset="1" stop-opacity="0"/>
  </linearGradient>
  <linearGradient id="d">
   <stop offset="0" stop-color="#204a87"/>
   <stop offset="1" stop-color="#204a87" stop-opacity="0"/>
  </linearGradient>
  <linearGradient id="c">
   <stop offset="0" stop-color="#3465a4"/>
   <stop offset="1" stop-color="#3465a4" stop-opacity="0"/>
  </linearGradient>
  <linearGradient id="e">
   <stop offset="0" stop-color="#fff"/>
   <stop offset="1" stop-color="#fff" stop-opacity="0"/>
  </linearGradient>
  <linearGradient gradientUnits="userSpaceOnUse" y2="16.743" x2="8.895" y1="15.868" x1="14.752" id="k" xlink:href="#c" gradientTransform="matrix(.33187 0 0 -.32889 -.013 10.759)"/>
  <linearGradient gradientUnits="userSpaceOnUse" y2="21.118" x2="7" y1="18.25" x1="12.25" id="l" xlink:href="#d" gradientTransform="matrix(.33187 0 0 -.32889 -.013 10.759)"/>
  <linearGradient xlink:href="#e" id="m" x1="-8.444" y1="12.044" x2="-3.621" y2="34.38" gradientUnits="userSpaceOnUse" gradientTransform="matrix(.27163 0 0 .27594 6.227 -3.31)"/>
  <linearGradient id="h">
   <stop stop-color="#dfe0df" offset="0"/>
   <stop stop-color="#a6b0a6" offset=".238"/>
   <stop stop-color="#b5beb5" offset="1"/>
  </linearGradient>
  <linearGradient id="i">
   <stop stop-opacity=".129" offset="0"/>
   <stop stop-opacity="0" offset="1"/>
  </linearGradient>
  <linearGradient id="j">
   <stop stop-color="#fff" offset="0"/>
   <stop stop-color="#ededed" offset="1"/>
  </linearGradient>
  <linearGradient id="g">
   <stop stop-color="#fff" offset="0"/>
   <stop stop-color="#e2e2e2" offset="1"/>
  </linearGradient>
 </defs>
 <path d="M1.835 7.588h12.316l1.352 2.488v2.96h-15v-2.96z" fill="#888a85" stroke="#2e3436" stroke-linecap="round" stroke-linejoin="round"/>
 <path d="M1.835 10.219h12.316l1.352 1.287v1.53h-15v-1.53z" fill="#555753" stroke="#2e3436" stroke-linecap="round" stroke-linejoin="round"/>
 <path style="marker:none" d="M9.472 7.58V5.508H11.9L8.016 1.295 4.163 5.507H6.53v2.074z" color="#000" display="block" overflow="visible" fill="url(#k)" stroke="url(#l)"/>
 <path d="M10.124 4.267c-1.676-.428-3.15 1.073-4.473.32L8.046 2.05" fill="url(#m)"/>
 <path d="M1.453 9.254a.935.935 0 0 0-.942.931v4.387c0 .516.42.931.942.931h13.102a.935.935 0 0 0 .942-.93v-4.388c0-.516-.42-.93-.942-.93H12.5v2.317a.973.973 0 0 1-.978.971H4.486a.973.973 0 0 1-.978-.971V9.254z" fill="#888a85" stroke="#2e3436" stroke-linecap="round" stroke-linejoin="round"/>
</svg>
