<svg xmlns="http://www.w3.org/2000/svg" xmlns:xlink="http://www.w3.org/1999/xlink" width="22" height="22" version="1.0">
 <defs>
  <linearGradient id="h">
   <stop offset="0" stop-color="#babdb6"/>
   <stop offset="1" stop-color="#babdb6" stop-opacity="0"/>
  </linearGradient>
  <linearGradient id="e">
   <stop offset="0" stop-color="#fff"/>
   <stop offset="1" stop-color="#fff" stop-opacity="0"/>
  </linearGradient>
  <linearGradient id="d">
   <stop offset="0" stop-color="#cecece"/>
   <stop offset="1" stop-color="#9e9e9e"/>
  </linearGradient>
  <linearGradient id="g">
   <stop offset="0" stop-color="#fff"/>
   <stop offset="1" stop-color="#fff" stop-opacity="0"/>
  </linearGradient>
  <linearGradient id="c">
   <stop offset="0" stop-color="#525252"/>
   <stop offset="1" stop-color="#525252" stop-opacity="0"/>
  </linearGradient>
  <linearGradient id="b">
   <stop offset="0" stop-color="#4e4e4e"/>
   <stop offset="1" stop-color="#616161" stop-opacity="0"/>
  </linearGradient>
  <linearGradient id="a">
   <stop offset="0" stop-color="#4e4e4e"/>
   <stop offset="1" stop-color="#ababab"/>
  </linearGradient>
  <linearGradient id="f">
   <stop offset="0" stop-color="#fff"/>
   <stop offset="1" stop-color="#fff" stop-opacity="0"/>
  </linearGradient>
  <linearGradient gradientUnits="userSpaceOnUse" y2="27.759" x2="18.031" y1="19.804" x1="46.846" id="k" xlink:href="#a" gradientTransform="matrix(.43354 0 0 .44765 -4.07 .633)"/>
  <radialGradient gradientUnits="userSpaceOnUse" gradientTransform="matrix(1.11238 0 0 .62817 -20.45 -3.613)" r="9.723" fy="7.14" fx="27.884" cy="7.14" cx="27.884" id="l" xlink:href="#b"/>
  <linearGradient gradientTransform="matrix(.79648 0 0 .79511 -17.292 -6.537)" gradientUnits="userSpaceOnUse" y2="24.765" x2="34.007" y1="19.108" x1="31.853" id="m" xlink:href="#c"/>
  <linearGradient gradientUnits="userSpaceOnUse" y2="18.064" x2="33.711" y1="21.511" x1="31.079" id="n" xlink:href="#d" gradientTransform="matrix(.79648 0 0 .79511 -16.403 -6.537)"/>
  <linearGradient xlink:href="#e" id="o" x1="40.25" y1="31.625" x2="40.25" y2="43.25" gradientUnits="userSpaceOnUse" gradientTransform="translate(-12.02)"/>
  <filter x="-.142" width="1.283" y="-.104" height="1.208" id="p">
   <feGaussianBlur stdDeviation="2.07"/>
  </filter>
  <filter x="-.067" width="1.134" y="-.12" height="1.239" id="j">
   <feGaussianBlur stdDeviation=".769"/>
  </filter>
  <radialGradient xlink:href="#f" id="q" gradientUnits="userSpaceOnUse" gradientTransform="matrix(1.25344 0 0 .9539 -15.48 11.277)" cx="19.701" cy="2.897" fx="19.701" fy="2.897" r="17.171"/>
  <linearGradient xlink:href="#g" id="r" gradientUnits="userSpaceOnUse" x1="8.76" y1="13.663" x2="19.756" y2="43.45" gradientTransform="matrix(.96872 0 0 .96892 .362 .738)"/>
  <linearGradient xlink:href="#h" id="i" x1="18.729" y1="44" x2="18.729" y2="29.068" gradientUnits="userSpaceOnUse" gradientTransform="matrix(.41935 0 0 .47235 1.17 .217)"/>
 </defs>
 <rect ry=".707" rx=".707" y="1.5" x="1.5" height="20" width="14" style="marker:none" color="#000" fill="#eeeeec" fill-rule="evenodd" stroke="#555753" stroke-miterlimit="10" overflow="visible"/>
 <path style="marker:none" color="#000" fill="url(#i)" fill-rule="evenodd" overflow="visible" d="M2 8.36h13V21H2z"/>
 <path d="M2.104 43.875L23.48 35s3.514-2.22.25-3.5c-3.415-1.34-7 .5-7 .5L2.104 43.875z" transform="matrix(.53566 0 0 .53474 -.369 -2.626)" opacity=".886" fill-rule="evenodd" filter="url(#j)"/>
 <path d="M2.017 20.305L2 2l8.646.02.019 13.393-8.648 4.892z" style="marker:none" color="#000" fill="url(#k)" fill-rule="evenodd" overflow="visible"/>
 <path style="marker:none" d="M2 20.305l8.724-4.867-8.037 3.992V2h-.68L2 20.305z" opacity=".422" color="#000" fill="#fff" display="block" overflow="visible"/>
 <path style="marker:none" d="M2.02 20.22L2 2h8.645l-.078 13.71-8.548 4.51z" color="#000" fill="url(#l)" fill-rule="evenodd" overflow="visible"/>
 <path d="M7.207 8.138l1.531 1.95-1.162 3.83s.212 1.195.828.387 2.367-2.848 2.059-4.34C10.234 8.858 9.6 8.331 9.6 8.331l-2.393-.193z" style="marker:none" color="#000" fill="url(#m)" fill-rule="evenodd" overflow="visible"/>
 <path d="M8.668 7.26s1.723.796 1.777 1.493c.081 1.035-3.379 4.322-3.379 4.322-.405.492-1.074.053-.704-.422 0 0 2.761-3.274 2.587-3.531-.218-.322-1.566-.826-1.566-.826-.81-.597.213-1.833 1.285-1.036z" style="marker:none" color="#000" fill="url(#n)" fill-rule="evenodd" overflow="visible"/>
 <path d="M22.23 3.5l-.5 29.75-18 9.75 29.25.25-.25-39.75h-10.5z" transform="matrix(.44806 0 0 .4726 .824 .56)" opacity=".874" fill="url(#o)" fill-rule="evenodd" filter="url(#p)"/>
 <g color="#000">
  <path d="M1.732 17.064v13.358h6.977v4.865l13.179-11.334L8.636 12.842v4.225l-6.904-.003z" style="marker:none" fill="#c00" fill-rule="evenodd" stroke="#a40000" stroke-width="2.234" stroke-linecap="round" stroke-linejoin="round" stroke-miterlimit="10" overflow="visible" transform="matrix(-.44806 0 0 .44728 22.332 .849)"/>
  <path d="M9.43 14.328l.297 3.884-6.696.099-.296 6.32c10.258-3.828 8.53 3.143 17.869-.685L9.43 14.328z" style="marker:none" opacity=".508" fill="url(#q)" fill-rule="evenodd" overflow="visible" transform="matrix(-.44806 0 0 .44728 22.332 .849)"/>
  <path style="marker:none" d="M4.068 19.29v8.91h6.714v2.574l8.094-6.832-8.354-7.14v2.49l-6.454-.002z" opacity=".481" fill="none" stroke="url(#r)" stroke-width="2.234" stroke-miterlimit="10" overflow="visible" transform="matrix(-.44806 0 0 .44728 22.332 .849)"/>
 </g>
</svg>
