<?xml version="1.0" encoding="UTF-8" standalone="no"?>
<svg
   xmlns:dc="http://purl.org/dc/elements/1.1/"
   xmlns:cc="http://creativecommons.org/ns#"
   xmlns:rdf="http://www.w3.org/1999/02/22-rdf-syntax-ns#"
   xmlns:svg="http://www.w3.org/2000/svg"
   xmlns="http://www.w3.org/2000/svg"
   xmlns:sodipodi="http://sodipodi.sourceforge.net/DTD/sodipodi-0.dtd"
   xmlns:inkscape="http://www.inkscape.org/namespaces/inkscape"
   width="16"
   height="16"
   version="1.1"
   viewBox="0 0 16 16"
   id="svg45"
   sodipodi:docname="publication.svg"
   inkscape:version="0.92.3 (2405546, 2018-03-11)">
  <metadata
     id="metadata49">
    <rdf:RDF>
      <cc:Work
         rdf:about="">
        <dc:format>image/svg+xml</dc:format>
        <dc:type
           rdf:resource="http://purl.org/dc/dcmitype/StillImage" />
        <dc:title></dc:title>
      </cc:Work>
    </rdf:RDF>
  </metadata>
  <sodipodi:namedview
     pagecolor="#ffffff"
     bordercolor="#666666"
     borderopacity="1"
     objecttolerance="10"
     gridtolerance="10"
     guidetolerance="10"
     inkscape:pageopacity="0"
     inkscape:pageshadow="2"
     inkscape:window-width="3440"
     inkscape:window-height="2755"
     id="namedview47"
     showgrid="false"
     inkscape:zoom="56.967879"
     inkscape:cx="6.101689"
     inkscape:cy="5.152085"
     inkscape:window-x="3427"
     inkscape:window-y="-13"
     inkscape:window-maximized="1"
     inkscape:current-layer="svg45"
     fit-margin-top="0"
     fit-margin-left="0"
     fit-margin-right="0"
     fit-margin-bottom="0" />
  <defs
     id="defs7">
    <radialGradient
       id="radialGradient4356"
       cx="11.827"
       cy="10.476"
       r="32.665001"
       gradientTransform="matrix(0.60989862,0,0,0.32791282,-1.8711371,-1.5309356)"
       gradientUnits="userSpaceOnUse">
      <stop
         stop-color="#fff"
         offset="0"
         id="stop2" />
      <stop
         stop-color="#fff"
         stop-opacity="0"
         offset="1"
         id="stop4" />
    </radialGradient>
  </defs>
  <path
     d="m 15.118538,7.9997687 c 0,3.9318253 -3.187493,7.1194563 -7.118984,7.1194563 -3.931705,0 -7.11919816,-3.187417 -7.11919816,-7.1194563 0,-3.931611 3.18727816,-7.11881329 7.11919816,-7.11881329 3.931491,0 7.118984,3.18720229 7.118984,7.11881329 z"
     id="path9"
     inkscape:connector-curvature="0"
     style="fill:#3465a4;stroke-width:0.99999928" />
  <g
     id="g23"
     style="fill:#73d216;stroke-width:0.46667299"
     transform="matrix(2.1428523,0,0,2.1428009,-17.714245,-17.713842)">
    <g
       transform="matrix(0.17732,0,0,0.17732,7.5506,7.7662)"
       id="g15"
       style="color:#000000;stroke-width:0.46667299">
      <g
         id="g13"
         style="color:#000000;fill:#73d216;stroke-width:2.63186455">
        <path
           d="m 44.071,20.714 c -0.9955,7.5301 -3.6904,11.641 -5.3009,14.098 0.49907,1.4739 -1.8317,2.4581 -2.8706,3.441 -0.95096,0.97065 -2.7669,0.62697 -2.4825,-0.95689 -0.16526,-1.43 -1.1585,-2.7315 -0.78804,-4.2478 0.5631,-1.8889 -0.65613,-3.6648 -0.67738,-5.5376 -0.77192,-1.2094 -2.2833,-0.479 -3.4092,-0.38803 -1.737,0.02945 -2.6363,-1.9137 -2.9485,-3.3754 0.2885,-1.3676 0.39294,-2.8452 1.4159,-3.9153 2.863,-3.0034 5.0708,-1.8363 7.3859,-1.1751 0.85204,0.21778 3.5564,0.65558 2.7091,-0.90197 -4.6522,-2.4157 -3.3357,-1.6638 -7.8366,-0.62171 -1.3747,1.4776 -4.3871,-6.3139 -2.3607,-6.1594 2.645,-2.1008 5.8635,-1.9738 8.702,-2.7128 0.59795,-0.00245 1.4765,0.75711 0.36189,0.80462 -0.53962,1.1817 1.3536,0.51578 1.6391,0.15923 1.2443,0.65146 1.8007,2.1069 2.8508,3.0052 1.8802,2.4706 3.1524,5.41 3.6097,8.484 z"
           id="path11"
           inkscape:connector-curvature="0"
           style="color:#000000;fill:#73d216;stroke-width:2.63186455" />
      </g>
    </g>
    <g
       transform="matrix(0.17732,0,0,0.17732,7.5506,7.7662)"
       id="g21"
       style="color:#000000;stroke-width:0.46667299">
      <g
         id="g19"
         style="color:#000000;fill:#73d216;stroke-width:2.63186455">
        <path
           d="M 18.365,28.242 C 17.2825,26.6344 15.6898,25.1329 13.6741,24.9407 12.4913,26.246 9.9178,25.11955 10.1414,23.3501 9.25168,22.63525 6.8363,22.2112 7.8618,20.6199 c 1.0781,-1.4148 3.3399,-0.2038 4.4092,-1.6584 0.93098,-1.0739 1.4345,-2.8026 3.0425,-3.0407 1.0965,-0.49247 0.9757,-2.1269 2.3064,-2.2812 1.0833,-0.80841 0.83979,-2.8291 -0.5674,-3.1109 -1.2627,-0.43227 -1.3962,-2.2894 -2.1766,-1.6216 -1.7205,1.2809 -2.8259,1.4103 -1.0464,1.0902 1.512,-1.0029 -1.1719,-2.2795 -1.5638,-0.64175 -2.7713,2.6614 -4.991,5.9737 -5.9452,9.7272 -0.28908,1.0509 -0.49845,2.1236 -0.62899,3.2057 0.5527,1.671 -0.096268,2.9193 1.2069,3.7687 3.4012,5.6158 1.2709,9.0508 7.1844,12.139 -0.24091,1.4868 1.6965,2.9692 2.9415,1.8774 1.6164,-0.94038 1.5449,-3.1338 2.871,-4.3421 1.0597,-1.2886 1.5613,-2.9414 1.6984,-4.5751 0.0021,-1.2308 -1.0488,-2.3706 -2.2994,-2.3617 -0.3434,-0.11436 -0.68296,-0.27971 -0.92946,-0.55253"
           id="path17"
           inkscape:connector-curvature="0"
           style="color:#000000;fill:#73d216;stroke-width:2.63186455" />
      </g>
    </g>
  </g>
  <ellipse
     cx="7.3223429"
     cy="4.3748379"
     rx="6.685699"
     ry="3.5945485"
     id="ellipse25"
     style="opacity:0.42158999;fill:url(#radialGradient4356);stroke-width:0.99999928" />
  <g
     id="g37"
     style="fill:#73d216;stroke-width:0.46667299"
     transform="matrix(2.1428523,0,0,2.1428009,-17.714245,-17.713842)">
    <g
       transform="matrix(0.17732,0,0,0.17732,7.5506,7.7662)"
       id="g27"
       style="color:#000000;stroke-width:2.63186455" />
    <g
       transform="matrix(0.17732,0,0,0.17732,7.5506,7.7662)"
       id="g29"
       style="color:#000000;stroke-width:2.63186455" />
    <g
       transform="matrix(0.17732,0,0,0.17732,7.5506,7.7662)"
       id="g35"
       style="color:#000000;stroke-width:0.46667299">
      <g
         id="g33"
         style="color:#000000;fill:#73d216;stroke-width:2.63186455">
        <path
           d="M 17.492,6.8496 17.8558,6.521 18.5829,6.3564 c 0.498,-0.2422 0.998,-0.4053 1.5264,-0.5762 l -0.29,-0.4937 -0.9385,0.1348 -0.4434,0.4419 -0.731,0.106 -0.6499,0.3052 -0.3159,0.1528 -0.1929,0.2583 0.9443,0.1641"
           id="path31"
           inkscape:connector-curvature="0"
           style="color:#000000;fill:#73d216;stroke-width:2.63186455" />
      </g>
    </g>
  </g>
  <path
     d="m 15.499966,7.9997687 c 0,4.1422483 -3.358064,7.5002323 -7.499983,7.5002323 -4.1421339,0 -7.49998336,-3.357984 -7.49998336,-7.5002323 0,-4.1420343 3.35784946,-7.49980339 7.49998336,-7.49980339 4.141705,0 7.499983,3.35755479 7.499983,7.49980339 z"
     id="path39"
     inkscape:connector-curvature="0"
     style="fill:none;stroke:#4e9a06;stroke-width:0.99999928" />
</svg>
