<?xml version="1.0" encoding="UTF-8"?>
<svg width="124" height="82" version="1.1" viewBox="0 0 124 82" xmlns="http://www.w3.org/2000/svg">
 <path d="m18.301 0.013133c10.263 5.3855 22.632 9.5084 37.122 10.636-7.3215 4.5908-25.535 17.654-53.638 19.816 31.131 5.9019 57.237-1.9906 77.781-10.145-11.188 4.2724-26.559 17.907-38.996 35.758 25.687-17.018 43.712-23.485 65.481-27.601-13.596 5.9921-30.332 23.639-38.402 40.928 19.224-16.46 37.06-24.752 56.381-30.013v-39.379zm105.73 45.984c-8.779 8.1285-16.839 19.637-20.855 35.031 6.8003-7.9365 13.765-14.368 20.855-19.623z" fill="#f00"/>
</svg>
