<?xml version="1.0" encoding="UTF-8"?>
<svg width="210" height="64" version="1.1" viewBox="0 0 210 64" xmlns="http://www.w3.org/2000/svg">
 <path id="leaf-left" d="m0 0.16597v19.086c20.926 5.1156 45.26 21.584 61.805 44.748-1.7287-20.077-14.999-39.166-24.928-46.947 24.448 6.6554 48.054 18.363 68.492 46.544-4.1251-23.445-18.014-38.958-30.356-47.197 24.093 7.0378 44.767 16.607 66.527 38.528-6.6122-17.798-21.791-36.649-34.793-43.686 21.261 5.8357 38.618 13.7 62.726 32.647-10.898-18.706-25.047-33.466-35.8-38.605 19.72 9.7418 44.975 19.672 76.328 16.324-24-3.818-39.945-15.138-48.268-21.443zm0 21.92v17.177c7.3858 5.2112 14.282 11.358 20.634 18.431-3.7571-12.641-12.457-27.504-20.634-35.608z"/>
</svg>
