<?xml version="1.0" encoding="UTF-8" standalone="no"?>
<svg xmlns="http://www.w3.org/2000/svg" width="100" height="30" version="1.1">
  <g id="papaya-logo">
    <path d="M 0,30.000001 C 3.3204564,23.343544 5.8715388,15.515081 8.935217,8.5609679 16.19044,-7.9075517 27.547007,6.1133259 48.949193,1.0153833 c -1.270072,1.5890289 -4.877436,4.6400413 -10.017216,4.119001 0.832705,0.8263718 2.868121,3.1147271 6.40371,4.0984665 -4.098658,0.084633 -7.253687,-1.6621473 -9.694036,-3.3118204 1.332635,0.8745417 2.993247,3.1751792 4.18713,6.0018476 -2.901514,-3.0283676 -5.057834,-4.3782745 -7.743062,-5.4859889 1.601887,1.1760349 3.348475,4.0775489 3.997905,6.7194049 -2.562981,-3.4262 -5.129033,-5.0632069 -8.166995,-6.3795293 1.502477,1.3403114 3.120676,3.7457333 3.382444,7.1679033 -2.319061,-4.3091865 -5.239574,-6.2904829 -8.328009,-7.5563326 1.195418,1.2439717 2.691754,4.1558486 2.68235,7.0635026 C 23.646018,9.6598543 20.391387,6.858711 17.606556,6.0486517 18.729623,7.0669352 19.993362,9.8162624 20.395609,12.024591 18.577245,9.3299581 16.276224,7.3845491 13.559522,6.2810568 9.7174489,6.4817964 9.9107049,12.764794 3.2087638,29.947801 Z"/>
    <path d="m 17.923687,17.498783 c -1.259552,0 -2.211423,0.531663 -2.791016,1.251953 -0.579593,0.72029 -0.814453,1.594447 -0.814453,2.353516 v 8.236328 a 0.5354776,0.5354776 0 0 0 0.535156,0.535156 h 0.947266 a 0.5354776,0.5354776 0 0 0 0.535156,-0.535156 v -4.632813 h 6.755859 c 0.759042,0 1.631262,-0.234879 2.351563,-0.814453 0.720301,-0.579574 1.251953,-1.529427 1.251953,-2.789062 0,-1.259635 -0.531652,-2.211442 -1.251953,-2.791016 -0.720301,-0.579574 -1.592521,-0.814453 -2.351563,-0.814453 z m 0,2.017578 h 5.167968 c 0.255264,0 0.693723,0.07366 1.011719,0.291016 0.317996,0.217353 0.574219,0.536802 0.574219,1.296875 0,0.75998 -0.256238,1.077549 -0.574219,1.294922 -0.317981,0.217372 -0.756386,0.291015 -1.011719,0.291015 -4.582062,0 -6.43882,-0.01866 -6.755859,-0.02148 -0.0052,-0.350651 -0.01668,-0.804778 0,-1.552735 a 0.5354776,0.5354776 0 0 0 0.002,-0.01172 c 0,-0.255265 0.07171,-0.695676 0.289062,-1.013672 0.217355,-0.317996 0.536803,-0.574219 1.296876,-0.574219 z"/>
    <path d="m 32.435405,17.498783 c -1.259551,0 -2.209469,0.531663 -2.789062,1.251953 -0.579593,0.72029 -0.816408,1.594447 -0.816406,2.353516 v 8.236328 a 0.5354776,0.5354776 0 0 0 0.537109,0.535156 h 0.947265 a 0.5354776,0.5354776 0 0 0 0.535157,-0.535156 v -4.632813 h 8.339843 v 4.632813 a 0.5354776,0.5354776 0 0 0 0.535157,0.535156 h 0.949219 a 0.5354776,0.5354776 0 0 0 0.535156,-0.535156 v -8.236328 c 0,-1.257827 -0.523501,-2.208512 -1.238282,-2.789063 -0.714779,-0.58055 -1.584707,-0.816406 -2.34375,-0.816406 z m 0,2.017578 h 5.191406 c 0.24113,0 0.674406,0.07373 0.990235,0.291016 0.315828,0.21728 0.572265,0.536894 0.572265,1.296875 v 1.585937 h -8.339843 v -1.585937 c 0,-0.255264 0.07368,-0.695673 0.291015,-1.013672 0.217339,-0.317999 0.534961,-0.574219 1.294922,-0.574219 z"/>
    <path d="m 47.661968,17.498783 c -1.259635,0 -2.209489,0.531652 -2.789063,1.251953 -0.579574,0.720301 -0.814453,1.594473 -0.814453,2.353516 v 8.236328 a 0.5354776,0.5354776 0 0 0 0.535156,0.535156 h 0.947266 A 0.5354776,0.5354776 0 0 0 46.07603,29.34058 v -4.632813 h 6.75586 c 0.759042,0 1.631261,-0.234879 2.351562,-0.814453 0.720301,-0.579574 1.251953,-1.529427 1.251953,-2.789062 0,-1.25962 -0.53167,-2.211434 -1.251953,-2.791016 -0.720283,-0.579582 -1.592442,-0.814453 -2.351562,-0.814453 z m 0,2.017578 h 5.169922 c 0.255264,0 0.693722,0.07366 1.011718,0.291016 0.317996,0.217353 0.574219,0.536802 0.574219,1.296875 0,0.75998 -0.256237,1.077549 -0.574219,1.294922 -0.317981,0.217372 -0.756385,0.291015 -1.011718,0.291015 -4.582063,0 -6.43882,-0.01866 -6.75586,-0.02148 -0.0052,-0.351172 -0.01652,-0.805374 0,-1.552735 a 0.5354776,0.5354776 0 0 0 0,-0.01172 c 0,-0.255265 0.07366,-0.695676 0.291016,-1.013672 0.217353,-0.317996 0.534849,-0.574219 1.294922,-0.574219 z"/>
    <path d="m 62.17564,17.498783 c -1.259635,0 -2.209489,0.531652 -2.789063,1.251953 -0.579574,0.720301 -0.816406,1.594473 -0.816406,2.353516 v 8.236328 a 0.5354776,0.5354776 0 0 0 0.535156,0.535156 h 0.949219 a 0.5354776,0.5354776 0 0 0 0.535156,-0.535156 v -4.632813 h 8.339844 v 4.632813 a 0.5354776,0.5354776 0 0 0 0.535156,0.535156 h 0.949219 a 0.5354776,0.5354776 0 0 0 0.535156,-0.535156 v -8.236328 c 0,-1.257827 -0.525454,-2.208512 -1.240234,-2.789063 -0.714781,-0.58055 -1.582755,-0.816406 -2.341797,-0.816406 z m 0,2.017578 h 5.191406 c 0.240886,0 0.674391,0.07372 0.990234,0.291016 0.315844,0.217291 0.572266,0.536913 0.572266,1.296875 v 1.585937 h -8.339844 v -1.585937 c 0,-0.255265 0.07366,-0.695676 0.291016,-1.013672 0.217353,-0.317996 0.534849,-0.574219 1.294922,-0.574219 z"/>
    <path d="m 73.757671,17.498783 a 0.5354776,0.5354776 0 0 0 -0.535156,0.535156 v 3.070313 c 0,1.259635 0.531652,2.209488 1.251953,2.789062 0.720301,0.579574 1.59252,0.814453 2.351562,0.814453 h 1.587891 v 4.632813 a 0.5354776,0.5354776 0 0 0 0.535156,0.535156 h 0.947266 a 0.5354776,0.5354776 0 0 0 0.535156,-0.535156 v -4.632813 h 1.585938 c 1.259635,0 2.209488,-0.531652 2.789062,-1.251953 0.579574,-0.720301 0.816406,-1.59252 0.816406,-2.351562 V 18.033939 A 0.5354776,0.5354776 0 0 0 85.087749,17.498783 H 84.13853 a 0.5354776,0.5354776 0 0 0 -0.535156,0.535156 v 3.070313 c 0,0.24106 -0.07238,0.682009 -0.291016,1.003906 -0.218631,0.321896 -0.537088,0.582031 -1.294921,0.582031 H 76.82603 c -0.234883,0 -0.670272,-0.07609 -0.988281,-0.296875 C 75.51974,22.17253 75.26353,21.851188 75.26353,21.104252 v -3.070313 a 0.5354776,0.5354776 0 0 0 -0.535156,-0.535156 z"/>
    <path d="m 91.226421,17.498783 c -1.259552,0 -2.20947,0.531663 -2.789063,1.251953 -0.579593,0.72029 -0.814453,1.594447 -0.814453,2.353516 v 8.236328 a 0.5354776,0.5354776 0 0 0 0.535156,0.535156 h 0.947266 a 0.5354776,0.5354776 0 0 0 0.535156,-0.535156 v -4.632813 h 8.341796 v 4.632813 a 0.5354776,0.5354776 0 0 0 0.53516,0.535156 h 0.94726 a 0.5354776,0.5354776 0 0 0 0.535164,-0.535156 v -8.236328 c 0,-1.257827 -0.523504,-2.208513 -1.238284,-2.789063 -0.71478,-0.58055 -1.58471,-0.816406 -2.343752,-0.816406 z m 0,2.017578 h 5.191406 c 0.241007,0 0.676325,0.07372 0.992188,0.291016 0.315862,0.217292 0.572264,0.536914 0.572264,1.296875 v 1.585937 h -8.341796 v -1.585937 c 0,-0.255265 0.07366,-0.695676 0.291016,-1.013672 0.217354,-0.317996 0.534849,-0.574219 1.294922,-0.574219 z"/>
  </g>
</svg>
