<svg xmlns="http://www.w3.org/2000/svg" width="16" height="16"><text style="line-height:125%;-inkscape-font-specification:'Source Code Pro, monospace, Bold';text-align:start" x="2.274" y="1044.587" font-weight="700" font-size="9.992" font-family="'Source Code Pro',monospace" letter-spacing="0" word-spacing="0" transform="translate(0 -1036.362)"/><g transform="translate(4.03 -1034.385)" opacity=".5"><rect width="10.001" height="12.011" x="1.109" y="1037.185" rx="1.058" ry="1.075" opacity=".25" stroke="#000" stroke-linecap="round" stroke-linejoin="round"/><rect ry="1.075" rx="1.058" y="1036.862" x=".5" height="12.011" width="10.001" fill="#fff" stroke="#787877" stroke-linecap="round" stroke-linejoin="round"/><rect width="7.074" height="10" x="1.964" y="1037.362" rx="0" ry="0" fill="#ececec"/><rect width="10.006" height="2" x=".5" y="1036.862" rx="0" ry="0" fill="#ccc" stroke="#787877" stroke-linecap="round" stroke-linejoin="round"/><g fill="none" stroke="#000" stroke-linecap="square"><path d="M2.518 1041.888c.848 0 1.012.067 1.012.524v3.408M2.516 1045.9H4.53"/></g></g><g transform="translate(-.007 -1036.32)"><rect width="10.001" height="12.011" x="1.109" y="1037.185" rx="1.058" ry="1.075" opacity=".25" stroke="#000" stroke-linecap="round" stroke-linejoin="round"/><rect ry="1.075" rx="1.058" y="1036.862" x=".5" height="12.011" width="10.001" fill="#fff" stroke="#787877" stroke-linecap="round" stroke-linejoin="round"/><rect width="7.074" height="10" x="1.964" y="1037.362" rx="0" ry="0" fill="#ececec"/><rect width="10.006" height="2" x=".5" y="1036.862" rx="0" ry="0" fill="#ccc" stroke="#787877" stroke-linecap="round" stroke-linejoin="round"/><path d="M4.463 1041.937l3.053 1.903-3.078 2.04" fill="none" stroke="#000" stroke-linecap="round" stroke-linejoin="round"/></g></svg>