<svg xmlns="http://www.w3.org/2000/svg" width="22" height="22">
 <defs>
  <filter id="a" x="-.107" width="1.214" y="-.393" height="1.786" color-interpolation-filters="sRGB">
   <feGaussianBlur stdDeviation=".356"/>
  </filter>
 </defs>
 <ellipse cx="12" cy="19.517" rx="4" ry="1.087" transform="matrix(1.43855 0 0 1 -3.57 .595)" opacity=".5" fill="#888a85" filter="url(#a)"/>
 <g transform="translate(0 -1.977)">
  <path d="M.5 2.477V8.82l11.396 12.657 6.379-6.277L6.849 2.477zm2.54 1.269a1.27 1.269 0 0 1 1.27 1.268 1.27 1.269 0 0 1-1.27 1.269 1.27 1.269 0 0 1-1.27-1.269 1.27 1.269 0 0 1 1.27-1.268z" fill="#d3d7cf" stroke="#888a85" stroke-linecap="round" stroke-linejoin="round"/>
  <rect transform="rotate(47.757) skewX(-.053)" ry="1.859" rx="1.859" y="-1.172" x="8.887" height="4.591" width="12.58" fill="#73d216" stroke="#4e9a06" stroke-linecap="round" stroke-linejoin="round"/>
  <path d="M1 2.977v5.69L3.587 11.5c2.627-1.677 4.936-2.108 8.064-2.928l-5-5.596zm2.04.64c1.693 0 1.693 2.666 0 2.666s-1.693-2.665 0-2.665z" opacity=".5" fill="#fff"/>
 </g>
</svg>
